<svg width="423" height="423" xmlns="http://www.w3.org/2000/svg" xmlns:svg="http://www.w3.org/2000/svg" enable-background="new 0 0 423 423" version="1.1" xml:space="preserve">

 <g class="layer">
  <title>Layer 1</title>
  <path d="m1,376c0,-91.02 0,-182.04 0.33,-273.72c6.46,-26.5 19.3,-48.28 39.32,-65.89c18.68,-16.44 41.27,-23.59 64.99,-28.4c10.5,-2.13 20.91,-4.65 31.36,-6.99c58.69,0 117.38,0 176.79,0.26c1.98,0.68 3.23,1.14 4.51,1.5c52.07,15.08 85.52,48.76 100.69,100.72c1.7,5.83 3.34,11.68 5.01,17.52c0,48.02 0,96.04 -0.35,144.71c-1.12,5.07 -2.01,9.48 -2.65,13.92c-3.83,26.83 -13.01,51.58 -29.33,73.34c-28.94,38.6 -68.4,59.66 -115.24,68.1c-5.8,1.04 -11.62,1.96 -17.43,2.93c-67.02,0 -134.04,0 -201.82,-0.26c-7.23,-2.22 -14.02,-3.49 -20.11,-6.29c-18.12,-8.34 -29.87,-22.57 -36.07,-41.45m36.16,-73.35c-1.47,8.98 -4.15,17.95 -4.17,26.93c-0.05,23.22 15.11,37.91 38.3,38.23c27.23,0.38 48.79,-11.91 66.7,-31.2c27.17,-29.25 42.14,-64.74 50.85,-103.15c2.16,-9.56 3.2,-19.37 4.97,-29.03c1.08,-5.84 4.89,-8.56 10.44,-7.94c0.57,5.1 0.87,10.26 1.77,15.31c3.56,19.98 15.7,32.8 33.93,35.87c10.19,1.72 20.27,0.76 30.15,-2.11c21.53,-6.27 39.77,-18.4 57.02,-32.25c2.98,-2.39 5.75,-5.08 8.85,-7.32c3.02,-2.2 6.33,-0.71 6.36,2.97c0.06,6.51 -0.77,12.3 -6.23,17.54c-12.23,11.74 -23.99,24.05 -34.97,36.96c-5.04,5.93 -8.54,13.51 -11.35,20.87c-3.4,8.92 0.03,17.3 7.34,21.82c9.71,6 21.63,5.17 29.27,-3.27c4.7,-5.21 8.62,-11.47 11.53,-17.88c6.82,-14.96 9.89,-31.05 12.03,-47.26c0.99,-7.51 3.84,-13.54 10.02,-18.18c8.66,-6.49 17.01,-13.4 25.54,-20.07c2.88,-2.25 5.15,-4.79 2.62,-8.37c-2.74,-3.88 -6.05,-2.42 -9.09,-0.1c-5.44,4.13 -10.74,8.45 -16.35,12.34c-1.53,1.06 -4.36,1.68 -5.84,0.95c-1.46,-0.72 -2.58,-3.34 -2.74,-5.21c-0.31,-3.63 0.18,-7.32 0.32,-10.98c0.12,-3.1 0.11,-6.75 -3.57,-7.23c-2.25,-0.3 -5.27,1.18 -7.16,2.78c-11.69,9.89 -22.69,20.65 -34.83,29.93c-15.43,11.8 -32.3,21.21 -52.04,24.05c-22.3,3.2 -36.71,-7.05 -40.58,-29.01c-0.49,-2.78 -0.44,-5.65 -0.82,-8.45c-0.66,-4.84 -0.68,-8.86 5.88,-9.63c1.48,-0.18 3.78,-3.68 3.54,-5.32c-0.25,-1.72 -3.04,-3.19 -4.9,-4.49c-0.64,-0.45 -1.85,-0.07 -3.22,-0.07c0.28,-1.96 0.4,-3.6 0.75,-5.19c7.15,-33.23 23.26,-61.5 47.88,-84.79c12.43,-11.76 26.34,-21.59 43.15,-26.21c18.28,-5.02 31.15,3.44 34.56,22.15c2.56,14.06 0.12,27.53 -4.81,40.65c-8.78,23.37 -24.16,41.55 -44.38,55.86c-3.09,2.19 -5.68,4.84 -2.96,8.66c2.74,3.85 6.04,2.17 9.13,-0.02c19.27,-13.66 34.54,-30.8 44.6,-52.25c8.58,-18.3 13.31,-37.37 8.44,-57.66c-5.34,-22.26 -22.4,-32.85 -44.7,-28.14c-15.59,3.3 -28.85,11.31 -40.85,21.21c-33.38,27.56 -54.15,62.7 -61.53,105.5c-0.67,3.87 -2.7,4.65 -5.92,3.97c-4.25,-0.9 -5.22,-4.15 -5.4,-7.91c-0.66,-14.01 -2.17,-27.89 -7.01,-41.2c-4.37,-12.02 -10.84,-22.45 -22.01,-29.41c-6.16,-3.84 -12.66,-4.62 -18.97,-1.14c-5.34,2.94 -10.38,6.58 -15.15,10.4c-6.23,5 -11.88,10.72 -18.13,15.7c-7.66,6.12 -9.32,5.68 -16.74,-0.72c-1.41,-1.22 -5.08,-1.62 -6.44,-0.63c-1.41,1.01 -1.4,4.15 -1.73,6.4c-0.1,0.63 0.75,1.43 1.21,2.12c5.55,8.25 15.22,10.89 24.09,5.07c8.15,-5.36 15.23,-12.32 22.89,-18.45c4.27,-3.42 8.6,-6.81 13.17,-9.81c3.87,-2.54 7.8,-1.92 11.62,0.82c7.48,5.35 12.11,12.74 15.42,21.06c5.25,13.18 6.98,27.01 7.23,41.09c0.19,11.32 -0.64,12.58 -11.21,16.33c-29.67,10.51 -57.9,23.84 -83.08,42.97c-22.75,17.28 -41.89,37.58 -52.69,65.54z" fill="#FE705A" id="svg_1" opacity="1"/>
  <path d="m37.31,302.28c10.65,-27.59 29.79,-47.89 52.54,-65.17c25.18,-19.13 53.41,-32.46 83.08,-42.97c10.57,-3.75 11.4,-5.01 11.21,-16.33c-0.25,-14.08 -1.98,-27.91 -7.23,-41.09c-3.31,-8.32 -7.94,-15.71 -15.42,-21.06c-3.82,-2.74 -7.75,-3.36 -11.62,-0.82c-4.57,3 -8.9,6.39 -13.17,9.81c-7.66,6.13 -14.74,13.09 -22.89,18.45c-8.87,5.82 -18.54,3.18 -24.09,-5.07c-0.46,-0.69 -1.31,-1.49 -1.21,-2.12c0.33,-2.25 0.32,-5.39 1.73,-6.4c1.36,-0.99 5.03,-0.59 6.44,0.63c7.42,6.4 9.08,6.84 16.74,0.72c6.25,-4.98 11.9,-10.7 18.13,-15.7c4.77,-3.82 9.81,-7.46 15.15,-10.4c6.31,-3.48 12.81,-2.7 18.97,1.14c11.17,6.96 17.64,17.39 22.01,29.41c4.84,13.31 6.35,27.19 7.01,41.2c0.18,3.76 1.15,7.01 5.4,7.91c3.22,0.68 5.25,-0.1 5.92,-3.97c7.38,-42.8 28.15,-77.94 61.53,-105.5c12,-9.9 25.26,-17.91 40.85,-21.21c22.3,-4.71 39.36,5.88 44.7,28.14c4.87,20.29 0.14,39.36 -8.44,57.66c-10.06,21.45 -25.33,38.59 -44.6,52.25c-3.09,2.19 -6.39,3.87 -9.13,0.02c-2.72,-3.82 -0.13,-6.47 2.96,-8.66c20.22,-14.31 35.6,-32.49 44.38,-55.86c4.93,-13.12 7.37,-26.59 4.81,-40.65c-3.41,-18.71 -16.28,-27.17 -34.56,-22.15c-16.81,4.62 -30.72,14.45 -43.15,26.21c-24.62,23.29 -40.73,51.56 -47.88,84.79c-0.35,1.59 -0.47,3.23 -0.75,5.19c1.37,0 2.58,-0.38 3.22,0.07c1.86,1.3 4.65,2.77 4.9,4.49c0.24,1.64 -2.06,5.14 -3.54,5.32c-6.56,0.77 -6.54,4.79 -5.88,9.63c0.38,2.8 0.33,5.67 0.82,8.45c3.87,21.96 18.28,32.21 40.58,29.01c19.74,-2.84 36.61,-12.25 52.04,-24.05c12.14,-9.28 23.14,-20.04 34.83,-29.93c1.89,-1.6 4.91,-3.08 7.16,-2.78c3.68,0.48 3.69,4.13 3.57,7.23c-0.14,3.66 -0.63,7.35 -0.32,10.98c0.16,1.87 1.28,4.49 2.74,5.21c1.48,0.73 4.31,0.11 5.84,-0.95c5.61,-3.89 10.91,-8.21 16.35,-12.34c3.04,-2.32 6.35,-3.78 9.09,0.1c2.53,3.58 0.26,6.12 -2.62,8.37c-8.53,6.67 -16.88,13.58 -25.54,20.07c-6.18,4.64 -9.03,10.67 -10.02,18.18c-2.14,16.21 -5.21,32.3 -12.03,47.26c-2.91,6.41 -6.83,12.67 -11.53,17.88c-7.64,8.44 -19.56,9.27 -29.27,3.27c-7.31,-4.52 -10.74,-12.9 -7.34,-21.82c2.81,-7.36 6.31,-14.94 11.35,-20.87c10.98,-12.91 22.74,-25.22 34.97,-36.96c5.46,-5.24 6.29,-11.03 6.23,-17.54c-0.03,-3.68 -3.34,-5.17 -6.36,-2.97c-3.1,2.24 -5.87,4.93 -8.85,7.32c-17.25,13.85 -35.49,25.98 -57.02,32.25c-9.88,2.87 -19.96,3.83 -30.15,2.11c-18.23,-3.07 -30.37,-15.89 -33.93,-35.87c-0.9,-5.05 -1.2,-10.21 -1.77,-15.31c-5.55,-0.62 -9.36,2.1 -10.44,7.94c-1.77,9.66 -2.81,19.47 -4.97,29.03c-8.71,38.41 -23.68,73.9 -50.85,103.15c-17.91,19.29 -39.47,31.58 -66.7,31.2c-23.19,-0.32 -38.35,-15.01 -38.3,-38.23c0.02,-8.98 2.7,-17.95 4.32,-27.3m25.68,-23.76c-2.44,3.58 -5.03,7.06 -7.29,10.75c-7.89,12.85 -13.17,26.53 -12.48,41.93c0.62,13.98 10.61,24.78 23.87,25.74c9.56,0.69 18.95,-0.33 28.04,-3.59c21.34,-7.67 36.49,-22.87 49.01,-40.96c20.66,-29.86 32.2,-63.31 37.69,-99c0.97,-6.29 -3.45,-9.94 -9.5,-7.68c-7.79,2.9 -15.55,5.94 -23.12,9.38c-32.96,14.97 -63,33.98 -86.22,63.43m265.51,2.36c2.54,-8.78 5.3,-17.5 7.44,-26.38c0.5,-2.07 -0.41,-5.5 -1.95,-6.81c-2.59,-2.22 -5.27,-0.17 -7.25,2.11c-6.34,7.28 -12.97,14.33 -18.86,21.96c-3.29,4.28 -5.91,9.3 -7.82,14.37c-2.67,7.12 0.84,12.01 8.42,12.98c4.66,0.59 8.81,-0.75 11.56,-4.47c3.04,-4.12 5.45,-8.7 8.46,-13.76z" fill="#FFFCFB" id="svg_6" opacity="1"/>
  <path d="m63.2,278.24c23.01,-29.17 53.05,-48.18 86.01,-63.15c7.57,-3.44 15.33,-6.48 23.12,-9.38c6.05,-2.26 10.47,1.39 9.5,7.68c-5.49,35.69 -17.03,69.14 -37.69,99c-12.52,18.09 -27.67,33.29 -49.01,40.96c-9.09,3.26 -18.48,4.28 -28.04,3.59c-13.26,-0.96 -23.25,-11.76 -23.87,-25.74c-0.69,-15.4 4.59,-29.08 12.48,-41.93c2.26,-3.69 4.85,-7.17 7.5,-11.03z" fill="#FE715B" id="svg_7" opacity="1"/>
  <path d="m328.34,281.22c-2.85,4.72 -5.26,9.3 -8.3,13.42c-2.75,3.72 -6.9,5.06 -11.56,4.47c-7.58,-0.97 -11.09,-5.86 -8.42,-12.98c1.91,-5.07 4.53,-10.09 7.82,-14.37c5.89,-7.63 12.52,-14.68 18.86,-21.96c1.98,-2.28 4.66,-4.33 7.25,-2.11c1.54,1.31 2.45,4.74 1.95,6.81c-2.14,8.88 -4.9,17.6 -7.6,26.72z" fill="#FE725C" id="svg_8" opacity="1"/>
 </g>
</svg>